:version 1.10
:name ASF
:units
  mass 1
  length 1
  angle deg
:documentation
  ASF file generated by Kaydara
:root
  axis xyz
  order  tx ty tz rx ry rz
  position 0 0 0
  orientation 0 0 0
:bonedata
  begin
    id 1
    name lowerbackDummy
    direction 0 0 0
    length 0
    axis 0 -0 0 xyz
  end
  begin
    id 2
    name lowerback
    direction 0.0149039 0.998517 -0.0523597
    length 4.68464
    axis 0 -0 0 xyz
    dof rx ry rz
    limits( -inf , inf )
( -inf , inf )
( -inf , inf )

  end
  begin
    id 3
    name upperback
    direction -0.00882659 0.999418 -0.0329624
    length 4.68933
    axis 0 -0 0 xyz
    dof rx ry rz
    limits( -inf , inf )
( -inf , inf )
( -inf , inf )

  end
  begin
    id 4
    name thorax
    direction -0.0165585 0.999826 -0.0085833
    length 4.68976
    axis 0 -0 0 xyz
    dof rx ry rz
    limits( -inf , inf )
( -inf , inf )
( -inf , inf )

  end
  begin
    id 5
    name lowerneck
    direction -0.0130877 0.999911 0.00260353
    length 3.85007
    axis 0 -0 0 xyz
    dof rx ry rz
    limits( -inf , inf )
( -inf , inf )
( -inf , inf )

  end
  begin
    id 6
    name upperneck
    direction -0.0348454 0.928205 -0.370435
    length 3.70427
    axis 0 -0 0 xyz
    dof rx ry rz
    limits( -inf , inf )
( -inf , inf )
( -inf , inf )

  end
  begin
    id 7
    name head
    direction 0 0 0
    length 0
    axis 0 0 0 xyz
    dof rx ry rz
    limits( -inf , inf )
( -inf , inf )
( -inf , inf )

  end
  begin
    id 8
    name lclavicle
    direction 0.987582 0.144023 0.0627671
    length 7.76078
    axis 0 -0 0 xyz
    dof rx ry rz
    limits( -inf , inf )
( -inf , inf )
( -inf , inf )

  end
  begin
    id 9
    name lhumerus
    direction 1 -4.48958e-011 -1.45183e-018
    length 12.0426
    axis 180 -30 -90 xyz
    dof rx ry rz
    limits( -inf , inf )
( -inf , inf )
( -inf , inf )

  end
  begin
    id 10
    name lradius
    direction 1 -4.48999e-011 3.74805e-027
    length 5.43051
    axis 180 -30 -90 xyz
    dof rz ry rx
    limits( -inf , inf )
( -inf , inf )
( -inf , inf )

  end
  begin
    id 11
    name lwrist
    direction 1 -4.48988e-011 -4.48237e-017
    length 2.71524
    axis -90 90 0 xyz
    dof rz rx ry
    limits( -inf , inf )
( -inf , inf )
( -inf , inf )

  end
  begin
    id 12
    name lhand
    direction 1 -4.48882e-011 -4.48237e-017
    length 1.61667
    axis -90 90 0 xyz
    dof ry rx rz
    limits( -inf , inf )
( -inf , inf )
( -inf , inf )

  end
  begin
    id 13
    name lfingers
    direction 0 0 0
    length 0
    axis 0 0 0 xyz
    dof rz ry rx
    limits( -inf , inf )
( -inf , inf )
( -inf , inf )

  end
  begin
    id 14
    name lthumb
    direction 0 0 0
    length 0
    axis 0 0 0 xyz
    dof ry rx rz
    limits( -inf , inf )
( -inf , inf )
( -inf , inf )

  end
  begin
    id 15
    name rclavicle
    direction -0.980998 0.169556 0.0943023
    length 7.31716
    axis 0 -0 0 xyz
    dof rx ry rz
    limits( -inf , inf )
( -inf , inf )
( -inf , inf )

  end
  begin
    id 16
    name rhumerus
    direction -1 -1.83355e-005 2.45537e-005
    length 12.4217
    axis 180 30 90 xyz
    dof rx ry rz
    limits( -inf , inf )
( -inf , inf )
( -inf , inf )

  end
  begin
    id 17
    name rradius
    direction -1 -4.48967e-011 0
    length 5.51244
    axis 180 30 90 xyz
    dof rz ry rx
    limits( -inf , inf )
( -inf , inf )
( -inf , inf )

  end
  begin
    id 18
    name rwrist
    direction -1 -4.48964e-011 -4.48237e-017
    length 2.75622
    axis -90 -90 0 xyz
    dof rz rx ry
    limits( -inf , inf )
( -inf , inf )
( -inf , inf )

  end
  begin
    id 19
    name rhand
    direction -1 -4.48882e-011 -4.48237e-017
    length 1.81335
    axis -90 -90 0 xyz
    dof ry rx rz
    limits( -inf , inf )
( -inf , inf )
( -inf , inf )

  end
  begin
    id 20
    name rfingers
    direction 0 0 0
    length 0
    axis 0 0 0 xyz
    dof rz ry rx
    limits( -inf , inf )
( -inf , inf )
( -inf , inf )

  end
  begin
    id 21
    name rthumb
    direction 0 0 0
    length 0
    axis 0 0 0 xyz
    dof ry rx rz
    limits( -inf , inf )
( -inf , inf )
( -inf , inf )

  end
  begin
    id 22
    name rfemurDummy
    direction -0.640058 -0.688614 0.340788
    length 5.51442
    axis 0 -0 0 xyz
  end
  begin
    id 23
    name rfemur
    direction -0.34202 -0.939693 0
    length 14.6194
    axis 0 -0 -20 xyz
    dof rx ry rz
    limits( -inf , inf )
( -inf , inf )
( -inf , inf )

  end
  begin
    id 24
    name rtibia
    direction -0.34202 -0.939693 0
    length 17.7267
    axis 0 -0 -20 xyz
    dof rz ry rx
    limits( -inf , inf )
( -inf , inf )
( -inf , inf )

  end
  begin
    id 25
    name rfoot
    direction -0.0979793 -0.269196 0.958089
    length 4.88571
    axis -90 -7.62852e-016 -20 xyz
    dof ry rx rz
    limits( -inf , inf )
( -inf , inf )
( -inf , inf )

  end
  begin
    id 26
    name rtoes
    direction 0 0 0
    length 0
    axis 0 0 0 xyz
    dof rz ry rx
    limits( -inf , inf )
( -inf , inf )
( -inf , inf )

  end
  begin
    id 27
    name lfemurDummy
    direction 0.653368 -0.678499 0.335782
    length 5.59662
    axis 0 -0 0 xyz
  end
  begin
    id 28
    name lfemur
    direction 0.34202 -0.939693 0
    length 14.6166
    axis 0 -0 20 xyz
    dof rx ry rz
    limits( -inf , inf )
( -inf , inf )
( -inf , inf )

  end
  begin
    id 29
    name ltibia
    direction 0.34202 -0.939693 0
    length 17.6582
    axis 0 -0 20 xyz
    dof rz ry rx
    limits( -inf , inf )
( -inf , inf )
( -inf , inf )

  end
  begin
    id 30
    name lfoot
    direction 0.0811271 -0.222895 0.971461
    length 5.14087
    axis -90 7.62852e-016 20 xyz
    dof ry rx rz
    limits( -inf , inf )
( -inf , inf )
( -inf , inf )

  end
  begin
    id 31
    name ltoes
    direction 0 0 0
    length 0
    axis 0 0 0 xyz
    dof rz ry rx
    limits( -inf , inf )
( -inf , inf )
( -inf , inf )

  end
:hierarchy
  begin
    root lowerbackDummy rfemurDummy lfemurDummy
    lowerbackDummy lowerback
    lowerback upperback
    upperback thorax
    thorax lowerneck lclavicle rclavicle
    lowerneck upperneck
    upperneck head
    lclavicle lhumerus
    lhumerus lradius
    lradius lwrist
    lwrist lhand lthumb
    lhand lfingers
    rclavicle rhumerus
    rhumerus rradius
    rradius rwrist
    rwrist rhand rthumb
    rhand rfingers
    rfemurDummy rfemur
    rfemur rtibia
    rtibia rfoot
    rfoot rtoes
    lfemurDummy lfemur
    lfemur ltibia
    ltibia lfoot
    lfoot ltoes
  end

:SAMPLES-PER-SECOND 30
:FULLY-SPECIFIED
:DEGREES
78
root  2.214771181 37.14822183 -30.58599938 11.41329956 0.09629940242 -0.5570809841
lowerback  -3.388430119 0.9046429992 -1.768069983
upperback  -3.624619961 1.242759943 0.1159240007
thorax  -1.862239957 0.6644020081 1.129780054
lowerneck  -15.37979984 -0.9997540116 -2.031080008
upperneck  38.05490112 -0.3922579885 -0.9706310034
head  16.17070007 -0.586409986 -0.1286769956
lclavicle  0 5.864150125e-015 -2.067359921e-014
lhumerus  -36.28409958 20.45999908 68.37069702
lradius  -2.393443439e-031 -2.596203486e-031 47.32699966
lwrist  -3.531125038e-031 -0 -1.424250007
lhand  -3.534371547e-031 2.455970049 19.62389946
lfingers  90 7.125020027 -90
lthumb  91.20242572 2.265752701 62.03562172
rclavicle  0 5.864150125e-015 -2.067359921e-014
rhumerus  -43.72109985 -9.337670326 -75.25669861
rradius  3.108245467e-031 1.675605608e-031 28.32839966
rwrist  7.062250077e-031 -1.765562519e-031 -10.99549961
rhand  -0 -4.76748991 12.11060047
rfingers  -90 -7.125020027 -90
rthumb  -79.10169395 -26.20196076 -66.43963123
rfemur  -35.56240082 1.815199971 22.82139969
rtibia  -0 0 48.22380066
rfoot  -0 -15.43150043 -19.20890045
rtoes  6.889155851 18.82181635 -110.5305793
lfemur  -20.0102005 -10.51379967 -23.33349991
ltibia  -0 0 30.22809982
lfoot  -0 -26.31909943 20.59399986
ltoes  -1.83223619 -19.91931913 -95.36401943
79
root  2.214835572 37.17555549 -30.28999989 11.32450008 -0.09753569961 -0.3837870061
lowerback  -3.192980051 0.8499990106 -1.961560011
upperback  -3.548629999 1.169749975 0.1162049994
thorax  -1.895179987 0.6318110228 1.234699965
lowerneck  -15.76749992 -0.8811879754 -1.899989963
upperneck  38.37329865 -0.2184280008 -1.032889962
head  16.43090057 -0.5079680085 -0.1530169994
lclavicle  0 5.864150125e-015 -2.067359921e-014
lhumerus  -36.25659943 20.16110039 68.13539886
lradius  -2.364839479e-031 -2.622284934e-031 47.95510101
lwrist  -3.531125038e-031 -3.531125038e-031 -1.353170037
lhand  -3.533771847e-031 2.217720032 19.5326004
lfingers  90 7.125020027 -90
lthumb  91.16802123 2.222276551 62.26454584
rclavicle  0 5.864150125e-015 -2.067359921e-014
rhumerus  -43.6711998 -9.498310089 -75.1352005
rradius  3.10528104e-031 1.681093007e-031 28.42959976
rwrist  1.412450015e-030 -1.765562519e-031 -11.02880001
rhand  -3.544571069e-031 -4.992179871 11.89490032
rfingers  -90 -7.125020027 -90
rthumb  -79.31165779 -26.02262034 -66.72247808
rfemur  -35.79119873 2.484570026 22.34950066
rtibia  -0 0 46.1617012
rfoot  -0 -15.63169956 -19.09230042
rtoes  6.934848959 18.80555783 -110.6722669
lfemur  -18.99950027 -10.65909958 -23.67429924
ltibia  -0 0 29.55349922
lfoot  -0 -26.5571003 21.09620094
ltoes  -2.266943491 -19.87633803 -96.6412315
80
root  2.227444536 37.2033337 -29.98444565 11.19779968 0.03751099855 -0.1627389938
lowerback  -3.014369965 0.7565600276 -2.052550077
upperback  -3.506999969 1.041669965 0.02447850071
thorax  -1.947610021 0.5686439872 1.187459946
lowerneck  -15.69970036 -0.8669800162 -1.66110003
upperneck  38.48600006 -0.2540659904 -1.10473001
head  16.4715004 -0.4989199936 -0.2345989943
lclavicle  0 5.864150125e-015 -2.067359921e-014
lhumerus  -36.22359848 19.80369949 67.71489716
lradius  -2.344567789e-031 -2.64042533e-031 48.39649963
lwrist  -7.062250077e-031 -0 -1.536579967
lhand  -3.533721548e-031 2.196559906 19.36370087
lfingers  90 7.125020027 -90
lthumb  91.09021638 2.076173453 62.28764442
rclavicle  0 5.864150125e-015 -2.067359921e-014
rhumerus  -43.71120071 -9.965760231 -74.9240036
rradius  3.106761504e-031 1.678355443e-031 28.3791008
rwrist  1.412450015e-030 1.765562519e-031 -11.01690006
rhand  -3.544504201e-031 -4.979790211 11.88049984
rfingers  -90 -7.125020027 -90
rthumb  -79.31175674 -26.00828755 -66.71201283
rfemur  -35.8553009 2.839859962 21.82819939
rtibia  -0 0 44.03710175
rfoot  -0 -15.47049999 -19.0182991
rtoes  6.573291227 18.93084975 -109.5542836
lfemur  -17.79820061 -10.66619968 -24.05900002
ltibia  -0 0 28.62030029
lfoot  -0 -26.3281002 21.27300072
ltoes  -2.873609857 -19.8008538 -98.42871936
81
root  2.227466688 37.24222258 -29.70844479 11.17860031 0.4184600115 -0.5864729881
lowerback  -2.785860062 0.5961710215 -1.57596004
upperback  -3.447590113 0.8198710084 0.2300750017
thorax  -2.001549959 0.4495599866 1.126659989
lowerneck  -15.79940033 -0.8398079872 -1.642570019
upperneck  38.53900146 -0.1775400043 -1.206150055
head  16.52449989 -0.480358988 -0.2700609863
lclavicle  0 5.864150125e-015 -2.067359921e-014
lhumerus  -35.89789963 19.86149979 67.45800018
lradius  -2.342723811e-031 -2.64206154e-031 48.43650055
lwrist  -7.062250077e-031 -0 -1.659360051
lhand  -3.533518213e-031 2.108850002 19.46730042
lfingers  90 7.125020027 -90
lthumb  91.14147084 2.181426066 62.36956721
rclavicle  0 5.864150125e-015 -2.067359921e-014
rhumerus  -43.50260162 -10.13619995 -74.7743988
rradius  3.100541988e-031 1.689817569e-031 28.59070015
rwrist  0 -1.765562519e-031 -11.35999966
rhand  -3.544487925e-031 -4.976769924 11.76350021
rfingers  -90 -7.125020027 -90
rthumb  -79.36161806 -25.90064244 -66.73127154
rfemur  -35.9231987 3.426569939 21.99720001
rtibia  -0 0 41.73139954
rfoot  -0 -15.8508997 -19.13800049
rtoes  5.578776334 19.23684759 -106.5131512
lfemur  -16.8246994 -10.37779999 -23.63529968
ltibia  -0 0 27.63089943
lfoot  -0 -25.9321003 20.8987999
ltoes  -4.553003601 -19.49555722 -103.4204674
82
root  2.262822286 37.28600149 -29.36555457 11.07800007 0.4890989959 -0.2051959932
lowerback  -2.729150057 0.4739060104 -1.654639959
upperback  -3.347340107 0.6557070017 0.1166929975
thorax  -1.924399972 0.3663080037 1.052970052
lowerneck  -15.96319962 -0.7886070013 -1.664849997
upperneck  38.5929985 -0.08451420069 -1.217100024
head  16.59440041 -0.4485880136 -0.2556009889
lclavicle  0 5.864150125e-015 -2.067359921e-014
lhumerus  -35.68420029 19.94140053 67.10769653
lradius  -2.347243971e-031 -2.638046584e-031 48.33840179
lwrist  -7.062250077e-031 -3.531125038e-031 -1.526610017
lhand  -3.53308968e-031 1.910830021 19.81270027
lfingers  90 7.125020027 -90
lthumb  91.30750838 2.518519008 62.55195733
rclavicle  0 5.864150125e-015 -2.067359921e-014
rhumerus  -43.51789856 -10.24720001 -74.69080353
rradius  3.09200595e-031 1.705386538e-031 28.87879944
rwrist  0 -1.765562519e-031 -11.48359966
rhand  -3.54548541e-031 -5.158569813 11.92860031
rfingers  -90 -7.125020027 -90
rthumb  -79.38130566 -26.06705254 -66.89415598
rfemur  -35.81499863 3.58427 21.2173996
rtibia  -0 0 39.40299988
rfoot  -0 -15.86979961 -18.94420052
rtoes  4.873037339 19.42087567 -104.3811652
lfemur  -15.43809986 -10.26790047 -24.28969955
ltibia  -0 0 26.47929955
lfoot  -0 -25.79339981 20.85000038
ltoes  -5.110221945 -19.36202114 -105.0955245
83
root  2.249088813 37.31799989 -29.09000126 10.95810032 0.3239020109 -0.3820790052
lowerback  -2.813560009 0.4976530075 -1.648360014
upperback  -3.226259947 0.6921479702 0.3175939918
thorax  -1.75612998 0.3846240044 1.257529974
lowerneck  -15.23550034 -0.7889329791 -1.683240056
upperneck  38.18399811 -0.03154509887 -1.404530048
head  16.19930077 -0.4512310028 -0.3169839978
lclavicle  0 5.864150125e-015 -2.067359921e-014
lhumerus  -35.55530167 19.8798008 66.9375
lradius  -2.340518895e-031 -2.644015004e-031 48.48429871
lwrist  -3.531125038e-031 -0 -1.699620008
lhand  -3.532971633e-031 1.852560043 20.21479988
lfingers  90 7.125020027 -90
lthumb  91.49429667 2.884511819 62.59877554
rclavicle  0 5.864150125e-015 -2.067359921e-014
rhumerus  -43.53110123 -10.57859993 -74.2118988
rradius  3.09530102e-031 1.699398608e-031 28.76790047
rwrist  7.062250077e-031 -0 -11.22809982
rhand  -3.546271214e-031 -5.297339916 12.20890045
rfingers  -90 -7.125020027 -90
rthumb  -79.32975029 -26.33634946 -66.98902571
rfemur  -35.78530121 4.794690132 20.93899918
rtibia  -0 0 36.93009949
rfoot  -0 -15.51889992 -19.59440041
rtoes  4.624644385 19.47930835 -103.6352177
lfemur  -14.22990036 -10.0635004 -24.19680023
ltibia  -0 0 25.34320068
lfoot  -0 -25.92309952 20.72159958
ltoes  -6.030726658 -19.10469297 -107.8893739
84
root  2.233622206 37.35110966 -28.78755584 10.85569954 0.4189929962 -0.4742429852
lowerback  -2.686789989 0.4663420022 -1.601559997
upperback  -3.191800117 0.6489570141 0.40881899
thorax  -1.790670037 0.3631750047 1.323390007
lowerneck  -15.10340023 -0.7990210056 -1.622490048
upperneck  38.20069885 -0.05461779982 -1.448400021
head  16.17499924 -0.457780987 -0.3505040109
lclavicle  0 5.864150125e-015 -2.067359921e-014
lhumerus  -35.43000031 19.57099915 66.7378006
lradius  -2.33289953e-031 -2.65074024e-031 48.64920044
lwrist  -3.531125038e-031 -3.531125038e-031 -1.935799956
lhand  -3.533208887e-031 1.967919946 20.48240089
lfingers  90 7.125020027 -90
lthumb  91.61554878 3.103444745 62.48233319
rclavicle  0 5.864150125e-015 -2.067359921e-014
rhumerus  -43.61159897 -10.81099987 -73.9641037
rradius  3.096071893e-031 1.697993778e-031 28.74189949
rwrist  7.062250077e-031 -0 -11.2741003
rhand  -3.547130538e-031 -5.444990158 12.10060024
rfingers  -90 -7.125020027 -90
rthumb  -79.4523089 -26.24872619 -67.16835788
rfemur  -35.64210129 5.914400101 20.50830078
rtibia  -0 0 34.51869965
rfoot  -0 -15.38669968 -20.26370049
rtoes  4.078955021 19.59633159 -102.0036118
lfemur  -12.86769962 -10.04759979 -24.14010048
ltibia  -0 0 23.97590065
lfoot  -0 -25.92740059 20.55240059
ltoes  -6.256986363 -19.03423737 -108.5818971
